<svg width="342" height="84" viewBox="0 0 342 84" fill="none" xmlns="http://www.w3.org/2000/svg">
<g clip-path="url(#clip0_1313_44891)">
<path d="M223.736 40.9296C222.876 39.5024 221.836 38.3686 220.609 37.5283C219.735 36.9348 218.908 36.4612 218.121 36.1011C218.681 35.5876 219.248 35.0807 219.842 34.5872C220.595 33.9536 221.242 33.1467 221.769 32.1663C222.296 31.1859 222.563 29.8188 222.563 28.0581C222.563 26.0574 222.162 24.23 221.369 22.576C220.569 20.9221 219.195 19.5949 217.234 18.5946C215.273 17.5942 212.519 17.094 208.964 17.094H195.426V57.9626H210.191C213.252 57.9626 215.9 57.5625 218.128 56.7689C220.355 55.9752 222.056 54.7281 223.243 53.0341C224.43 51.3402 225.024 49.126 225.024 46.385C225.024 44.1775 224.597 42.3635 223.736 40.9296ZM199.841 21.3222H209.398C212.132 21.3222 214.28 21.8024 215.833 22.7628C217.387 23.7231 218.161 25.5905 218.161 28.3716C218.161 30.2923 217.754 31.7128 216.934 32.6331C216.114 33.5535 215.086 34.147 213.839 34.4071C212.592 34.6739 211.298 34.8073 209.951 34.8073H199.841V21.3289V21.3222ZM219.201 51.0667C218.261 52.1938 217.027 52.9341 215.493 53.3009C213.959 53.6677 212.319 53.8544 210.558 53.8544H199.834V38.9622H210.371C211.559 38.9622 212.752 39.0355 213.953 39.1756C215.16 39.3223 216.26 39.6291 217.261 40.0959C218.261 40.5628 219.068 41.2831 219.682 42.2367C220.295 43.1971 220.602 44.4909 220.602 46.1249C220.602 48.2923 220.135 49.933 219.195 51.06L219.201 51.0667Z" fill="white"/>
<path d="M257.216 33.1198C256.869 32.0794 256.375 31.159 255.742 30.3587C255.108 29.5651 254.341 28.9115 253.441 28.398C252.541 27.8845 251.52 27.4976 250.38 27.2376C249.233 26.9708 247.992 26.8374 246.645 26.8374C244.644 26.8374 242.577 27.0508 240.456 27.4776C238.329 27.9045 236.635 28.5314 235.367 29.345V33.7533C236.675 32.7329 238.235 31.986 240.056 31.5192C241.87 31.0523 243.597 30.8122 245.231 30.8122C247.805 30.8122 249.786 31.3658 251.173 32.4662C252.561 33.5666 253.254 35.3072 253.254 37.6748V41.3095C252.634 40.9627 251.98 40.6292 251.26 40.3358C250.3 39.949 249.206 39.6489 247.979 39.4488C246.752 39.242 245.304 39.142 243.631 39.142C241.423 39.142 239.476 39.4821 237.782 40.1557C236.088 40.8293 234.761 41.9297 233.8 43.4636C232.84 44.9975 232.36 47.025 232.36 49.5592C232.36 51.3999 232.72 52.9205 233.433 54.1209C234.147 55.3281 235.087 56.2751 236.254 56.9687C237.422 57.6623 238.682 58.1558 240.056 58.4359C241.423 58.7227 242.784 58.8627 244.131 58.8627C246.498 58.8627 248.712 58.696 250.78 58.3692C252.841 58.0424 254.515 57.3488 255.802 56.2884C257.089 55.228 257.729 53.6141 257.729 51.4466V36.6211C257.729 35.3139 257.556 34.1401 257.209 33.0997L257.216 33.1198ZM251.213 54.3811C249.846 54.7679 247.832 54.9613 245.178 54.9613C243.831 54.9613 242.51 54.7745 241.223 54.4077C239.936 54.0409 238.875 53.4073 238.035 52.507C237.195 51.6067 236.781 50.4062 236.781 48.8923C236.781 47.0116 237.475 45.5844 238.862 44.6041C240.249 43.6237 242.23 43.1368 244.804 43.1368C246.925 43.1368 248.879 43.3903 250.653 43.9038C251.654 44.1906 252.521 44.5107 253.254 44.8575V51.7134C253.254 53.1006 252.567 53.9942 251.2 54.3811H251.213Z" fill="white"/>
<path d="M267.539 29.8388C268.52 29.3453 269.534 28.9118 270.574 28.5184C271.614 28.1249 272.675 27.8114 273.762 27.5713C274.842 27.3246 275.943 27.1445 277.07 27.0178C278.19 26.8977 279.324 26.8311 280.471 26.8311C283.452 26.8311 285.82 27.2712 287.58 28.1516C289.334 29.0319 290.615 30.3057 291.408 31.9797C292.209 33.6536 292.602 35.6744 292.602 38.0486V57.9627H288.194V38.0486C288.194 37.315 288.101 36.5347 287.92 35.7211C287.734 34.9074 287.38 34.1205 286.847 33.3602C286.313 32.6066 285.5 31.993 284.392 31.5195C283.285 31.046 281.818 30.8125 279.984 30.8125C278.717 30.8125 277.41 30.9126 276.063 31.1193C274.716 31.3261 273.348 31.6329 271.954 32.0397V57.956H267.546V29.8322L267.539 29.8388Z" fill="white"/>
<path d="M328.196 57.9624L310.996 40.6492L325.995 27.3909H320.479L308.041 38.7485V15.7466H303.626V57.9624H308.041V43.5237L322.313 57.9624H328.196Z" fill="white"/>
<path d="M170.81 16.9604H175.478C176.079 16.9604 176.565 17.4473 176.565 18.0475V25.9438H184.762C185.362 25.9438 185.849 26.4307 185.849 27.0309V30.2721C185.849 30.8723 185.362 31.3592 184.762 31.3592H176.565V42.7234C176.565 49.3993 178.986 51.8535 185.455 52.0803C186.042 52.1003 186.502 52.5805 186.502 53.1607V56.9154C186.502 57.529 185.989 58.0158 185.375 58.0025C173.944 57.709 169.716 52.8872 169.716 43.1969V18.0475C169.716 17.4473 170.203 16.9604 170.803 16.9604H170.81Z" fill="white"/>
<path d="M68.4916 41.8364C68.4916 30.9457 73.3134 25.2302 84.4976 25.2302C95.6818 25.2302 100.45 30.8257 100.45 41.8364C100.45 52.8472 95.5684 58.0825 84.4976 58.0825C73.4268 58.0825 68.4916 52.7272 68.4916 41.8364ZM75.6343 41.8364C75.6343 49.6327 78.4287 52.5471 84.5043 52.5471C90.5799 52.5471 93.3142 49.6927 93.3142 41.8364C93.3142 33.9802 90.5799 30.7056 84.5043 30.7056C78.4287 30.7056 75.6343 34.0402 75.6343 41.8364Z" fill="white"/>
<path d="M104.845 41.8364C104.845 30.9457 109.667 25.2302 120.851 25.2302C132.035 25.2302 136.804 30.8257 136.804 41.8364C136.804 52.8472 131.922 58.0825 120.851 58.0825C109.78 58.0825 104.845 52.7272 104.845 41.8364ZM111.988 41.8364C111.988 49.6327 114.782 52.5471 120.858 52.5471C126.933 52.5471 129.668 49.6927 129.668 41.8364C129.668 33.9802 126.933 30.7056 120.858 30.7056C114.782 30.7056 111.988 34.0402 111.988 41.8364Z" fill="white"/>
<path d="M151.483 43.7437C144.88 42.67 141.306 40.5292 141.306 34.4603C141.306 28.7448 145.174 25.2368 153.804 25.2368C157.665 25.2368 161.626 26.1105 163.881 26.8041C164.334 26.9441 164.634 27.3643 164.634 27.8378V31.3458C164.634 32.1127 163.861 32.6263 163.147 32.3528C160.253 31.2324 157.458 30.7122 154.097 30.7122C149.989 30.7122 147.668 31.846 147.668 34.1668C147.668 36.7878 150.762 37.8549 155.704 38.6885C162.073 39.7623 165.581 41.723 165.581 48.032C165.581 54.341 162.073 57.9691 152.61 57.9691C148.181 57.9691 144.06 57.0221 141.439 55.895C141.039 55.7216 140.779 55.3281 140.779 54.8946V51.42C140.772 50.6263 141.586 50.1128 142.306 50.4263C145.54 51.8268 149.182 52.487 152.25 52.487C156.951 52.487 159.272 51.1799 159.272 48.4388C159.272 45.6978 157.312 44.6908 151.476 43.7371L151.483 43.7437Z" fill="white"/>
<path d="M55.8268 32.68C50.8516 24.4036 42.7353 24.1769 41.5348 24.2035C41.5415 23.0498 41.3014 14.8667 33.1117 9.95153C32.985 9.86483 29.9705 7.8374 25.3221 7.8374C22.3143 7.8374 19.2932 8.67772 16.3654 10.3317C11.1501 13.0994 9.31609 18.7548 8.87593 20.4221C8.6225 21.3958 8.50245 22.2628 8.40242 23.8834V42.6171C8.40242 42.7238 8.39575 44.0576 8.7092 45.3114C8.94262 46.2118 9.04932 46.6853 9.43614 47.6456C10.1031 49.3329 11.4436 51.3337 12.8374 52.7409L13.1175 53.021C14.8848 54.7616 16.1653 55.4752 17.2857 55.9821C18.2261 56.4089 19.3865 56.7757 20.2935 57.0025C21.594 57.3293 22.8745 57.3359 22.8878 57.3359H41.9016C43.4822 57.2359 44.3425 57.1158 45.3162 56.8624C46.9835 56.4223 52.639 54.5882 55.3933 49.3996C60.7487 39.9027 55.8468 32.7134 55.8202 32.68H55.8268Z" fill="#EA0029"/>
<path d="M49.9313 36.2144C48.5508 33.5201 46.1432 31.8128 42.782 31.1392C42.5285 31.0859 42.2418 31.0592 41.9683 31.0258L41.6015 30.9858C41.3814 30.9591 41.068 30.9258 40.5411 30.9258H40.2544H34.8123V25.5171C34.8323 24.8102 34.799 24.4234 34.7656 24.1633L34.7256 23.7898C34.6989 23.523 34.6656 23.2296 34.6122 22.9695C33.9387 19.6082 32.2314 17.2007 29.537 15.8201C27.4696 14.7597 25.5755 14.7197 25.5555 14.7197H25.2554C24.7285 14.7197 24.3284 14.7397 23.8616 14.8064C15.0116 16.0002 15.1116 24.5034 15.125 24.8635V40.6361C15.125 43.7973 15.9919 46.3049 17.6926 48.0922C19.4466 49.7729 21.9475 50.6332 25.1154 50.6332H40.968C41.8683 50.6332 49.8046 50.3864 50.9517 41.8966C51.0251 41.3564 51.0517 40.8962 51.0384 40.2093C51.0384 40.1893 51.0051 38.2952 49.938 36.2211L49.9313 36.2144Z" fill="white"/>
<path d="M54.513 0.874512H9.883C4.59435 0.874512 0.306076 5.16278 0.306076 10.4514V55.8551C0.306076 61.1437 4.59435 65.432 9.883 65.432H54.5064C59.795 65.432 64.0833 61.1437 64.0833 55.8551V10.4514C64.0833 5.16278 59.795 0.874512 54.5064 0.874512H54.513ZM55.4 49.3994C52.6457 54.588 46.9902 56.4286 45.3229 56.8621C44.3492 57.1156 43.4889 57.2356 41.9083 57.3357H41.8883H22.8879C22.8812 57.3357 21.594 57.329 20.2936 57.0022C19.3866 56.7754 18.2261 56.4086 17.2858 55.9818C16.1653 55.4683 14.8849 54.7547 13.1175 53.0207L12.8374 52.7406C11.4436 51.3334 10.1097 49.3327 9.43616 47.6454C9.05602 46.685 8.94264 46.2182 8.70922 45.3112C8.3891 44.0574 8.40244 42.7235 8.40244 42.6168V23.8831C8.50248 22.2559 8.62252 21.3955 8.87595 20.4218C9.31612 18.7545 11.1501 13.0991 16.3654 10.3314C19.2999 8.67743 22.3143 7.83712 25.3221 7.83712C29.9705 7.83712 32.985 9.86454 33.1117 9.95124C41.3014 14.8731 41.5415 23.0495 41.5349 24.2032C42.7286 24.1766 50.845 24.3967 55.8269 32.6798C55.8535 32.7198 60.7554 39.9025 55.4 49.3994Z" fill="white"/>
<path d="M334.158 18.0678H332.097V23.4431H330.837V18.0678H328.762V16.9607H334.158V18.0678Z" fill="white"/>
<path d="M340.433 23.4365V19.1482L338.766 22.3427H338.079L336.412 19.1482V23.4365H335.151V16.9607H336.499L338.413 20.6487L340.347 16.9607H341.687V23.4365H340.427H340.433Z" fill="white"/>
<path d="M297.291 70.1678C296.85 70.1678 296.444 70.6013 296.37 71.1548L296.037 73.5757C295.963 74.1293 296.25 74.5628 296.684 74.5628C297.117 74.5628 297.531 74.1293 297.611 73.5757L297.944 71.1548C298.018 70.6013 297.731 70.1678 297.291 70.1678ZM292.696 79.8781L293.843 71.8284C294.096 70.0544 295.977 68.5005 297.984 68.5005C299.992 68.5005 300.992 69.9143 300.792 71.2815L300.625 72.4486C300.485 73.4357 299.765 74.376 298.478 75.0763L299.792 77.3038C299.945 77.5505 300.005 77.924 299.945 78.3242C299.812 79.1711 299.171 79.8714 298.478 79.8714C298.098 79.8714 297.797 79.6647 297.617 79.3446L295.683 75.9966L295.35 78.3442C295.23 79.1912 294.59 79.8714 293.916 79.8714H292.696V79.8781Z" fill="white"/>
<path d="M302.086 70.2811C302.219 69.3007 302.993 68.4871 303.78 68.4871C304.567 68.4871 305.094 69.3007 304.96 70.2811L304.407 74.3426H305.961L306.534 70.2811C306.667 69.3007 307.441 68.4871 308.228 68.4871C309.015 68.4871 309.549 69.3007 309.408 70.2811L308.321 78.084C308.181 79.071 307.414 79.878 306.627 79.878C305.84 79.878 305.314 79.0644 305.447 78.084L305.794 75.5564H304.22L303.873 78.084C303.74 79.071 302.966 79.878 302.179 79.878H300.759L302.092 70.2744L302.086 70.2811Z" fill="white"/>
<path d="M314.097 70.1677C313.597 70.1677 313.143 70.6745 313.037 71.3014L312.856 72.4152C312.75 73.0421 313.103 73.549 313.603 73.549C314.104 73.549 314.57 73.0421 314.677 72.4152L314.857 71.3014C314.964 70.6745 314.604 70.1677 314.104 70.1677M313.497 74.3026C312.996 74.3026 312.53 74.8161 312.436 75.4363L312.21 77.0636C312.116 77.6838 312.45 78.1907 312.95 78.1907C313.45 78.1907 313.937 77.6838 314.024 77.0636L314.25 75.4363C314.344 74.8161 313.997 74.3026 313.49 74.3026M317.378 71.755C317.258 72.5152 316.845 73.2488 316.124 73.9291C316.625 74.456 316.831 75.1562 316.725 75.8365L316.625 76.5301C316.351 78.3307 314.49 79.878 312.496 79.878H309.335L310.502 71.815C310.762 70.0343 312.636 68.4871 314.644 68.4871C316.651 68.4871 317.665 69.9009 317.458 71.2614L317.385 71.755H317.378Z" fill="white"/>
<path d="M322.987 68.9644L317.788 74.1677L322.991 79.3674L328.191 74.1641L322.987 68.9644Z" fill="white"/>
<path d="M201.368 72.9751C200.781 72.2682 199.881 71.9147 198.667 71.9147C198.44 71.9147 198.167 71.9481 197.853 72.0081C197.54 72.0681 197.233 72.1482 196.933 72.2415C196.8 72.2815 196.68 72.3282 196.566 72.3682V68.7202H195.432V78.5439C195.432 78.8573 195.519 79.1174 195.686 79.3175C195.853 79.5176 196.079 79.6776 196.366 79.7977C196.653 79.9177 196.986 80.0044 197.36 80.0511C197.733 80.0978 198.12 80.1245 198.527 80.1245C198.934 80.1245 199.341 80.0711 199.767 79.9578C200.194 79.8444 200.594 79.6443 200.968 79.3442C201.341 79.0441 201.648 78.6173 201.888 78.057C202.128 77.4968 202.248 76.7632 202.248 75.8629C202.248 74.6491 201.955 73.6887 201.368 72.9818V72.9751ZM200.861 77.4368C200.728 77.9237 200.474 78.3171 200.101 78.6239C199.721 78.9307 199.161 79.0774 198.42 79.0774C198.167 79.0774 197.9 79.0574 197.613 79.0241C197.327 78.9907 197.08 78.9107 196.873 78.7973C196.666 78.6839 196.566 78.5105 196.566 78.2771V73.502C196.893 73.3153 197.24 73.1752 197.62 73.0885C197.993 73.0018 198.347 72.9551 198.674 72.9551C199.247 72.9551 199.714 73.0818 200.054 73.3219C200.394 73.562 200.654 73.9088 200.814 74.3423C200.975 74.7758 201.055 75.2827 201.055 75.8562C201.055 76.4298 200.988 76.95 200.861 77.4368Z" fill="white"/>
<path d="M209.598 72.0415L207.123 78.4306L204.636 72.0415H203.349L206.597 79.9111C206.497 80.2179 206.383 80.5113 206.263 80.7781C206.11 81.1116 205.923 81.3783 205.703 81.5784C205.483 81.7785 205.196 81.8785 204.836 81.8785C204.689 81.8785 204.556 81.8652 204.442 81.8318C204.329 81.7985 204.236 81.7718 204.162 81.7385V82.7722C204.249 82.8055 204.349 82.8322 204.476 82.8656C204.603 82.8989 204.743 82.9122 204.903 82.9122C205.156 82.9122 205.423 82.8522 205.71 82.7322C205.996 82.6121 206.283 82.3854 206.577 82.0653C206.87 81.7451 207.13 81.2716 207.37 80.6514L210.732 72.0415H209.598Z" fill="white"/>
<path d="M237.508 71.7085C238.582 71.7085 239.436 71.8353 240.183 72.5889C240.743 73.1557 240.93 74.0294 240.93 75.1098V79.7249H239.029V79.3114L238.975 79.3647C238.975 79.3647 238.842 79.4915 238.515 79.6182C238.188 79.7449 237.662 79.8783 236.881 79.8783C236.161 79.8783 235.294 79.6982 234.834 79.3181C234.387 78.9513 234 78.3377 234 77.464C234 76.6971 234.387 75.9701 234.874 75.5833C235.434 75.1498 236.241 74.9764 237.175 74.9764C238.108 74.9764 238.989 75.0765 238.989 75.0765H239.022V75.0498C239.022 75.0498 239.022 74.9898 239.022 74.9031C239.022 74.6496 238.975 74.1294 238.595 73.816C238.262 73.5426 237.755 73.4759 237.161 73.4759C236.575 73.4759 235.614 73.6226 234.881 73.8693V72.809C234.881 72.5889 234.994 72.4221 235.154 72.3021C235.347 72.1554 236.381 71.7152 237.495 71.7152M236.455 78.2977C236.701 78.4511 236.995 78.5244 237.301 78.5244C237.602 78.5244 237.922 78.4577 238.215 78.3243C238.829 78.0642 239.015 77.484 239.015 77.0572V76.4036C239.015 76.4036 238.562 76.2436 237.735 76.2436C237.682 76.2436 237.622 76.2436 237.568 76.2436C236.835 76.2636 236.381 76.4837 236.161 76.8371C236.068 76.9838 236.008 77.1973 236.008 77.4173C236.008 77.7441 236.134 78.0909 236.455 78.291M257.029 71.7085C258.103 71.7085 258.956 71.8353 259.703 72.5889C260.263 73.1557 260.45 74.0294 260.45 75.1098V79.7249H258.549V79.3114L258.496 79.3647C258.496 79.3647 258.363 79.4915 258.036 79.6182C257.709 79.7449 257.182 79.8783 256.402 79.8783C255.682 79.8783 254.815 79.6982 254.355 79.3181C253.908 78.9513 253.528 78.3377 253.528 77.464C253.528 76.6971 253.914 75.9701 254.401 75.5833C254.961 75.1498 255.768 74.9764 256.702 74.9764C257.629 74.9764 258.516 75.0765 258.516 75.0765H258.549V75.0498C258.549 75.0498 258.549 74.9898 258.549 74.9031C258.549 74.6496 258.503 74.1294 258.123 73.816C257.796 73.5426 257.282 73.4759 256.689 73.4759C256.102 73.4759 255.142 73.6226 254.408 73.8693V72.809C254.408 72.5889 254.521 72.4221 254.681 72.3021C254.875 72.1554 255.908 71.7152 257.022 71.7152M255.982 78.2977C256.229 78.4511 256.522 78.5244 256.829 78.5244C257.129 78.5244 257.449 78.4577 257.742 78.3243C258.356 78.0642 258.543 77.484 258.543 77.0572V76.4036C258.543 76.4036 258.089 76.2436 257.262 76.2436C257.209 76.2436 257.149 76.2436 257.096 76.2436C256.355 76.2636 255.908 76.4837 255.688 76.8371C255.595 76.9838 255.535 77.1973 255.535 77.4173C255.535 77.7441 255.662 78.0909 255.982 78.291M270.287 71.7085C271.361 71.7085 272.215 71.8353 272.962 72.5889C273.522 73.1557 273.708 74.0294 273.708 75.1098V79.7249H271.808V79.3114L271.754 79.3647C271.754 79.3647 271.621 79.4915 271.294 79.6182C270.967 79.7449 270.441 79.8783 269.66 79.8783C268.94 79.8783 268.073 79.6982 267.613 79.3181C267.166 78.9513 266.779 78.3377 266.779 77.464C266.779 76.6971 267.166 75.9701 267.653 75.5833C268.213 75.1498 269.02 74.9764 269.954 74.9764C270.881 74.9764 271.768 75.0765 271.768 75.0765H271.801V75.0498C271.801 75.0498 271.808 74.9898 271.808 74.9031C271.808 74.6496 271.761 74.1294 271.381 73.816C271.047 73.5426 270.541 73.4759 269.947 73.4759C269.36 73.4759 268.4 73.6226 267.666 73.8693V72.809C267.666 72.5889 267.78 72.4221 267.94 72.3021C268.133 72.1554 269.167 71.7152 270.281 71.7152M269.24 78.2977C269.487 78.4511 269.78 78.5244 270.087 78.5244C270.387 78.5244 270.707 78.4577 271.001 78.3243C271.614 78.0642 271.801 77.484 271.801 77.0572V76.4036C271.801 76.4036 271.348 76.2436 270.521 76.2436C270.467 76.2436 270.407 76.2436 270.354 76.2436C269.62 76.2636 269.167 76.4837 268.947 76.8371C268.853 76.9838 268.793 77.1973 268.793 77.4173C268.793 77.7441 268.92 78.0909 269.24 78.291M262.504 79.3714C262.891 79.7249 263.351 79.8583 264.045 79.8583C264.772 79.8583 265.299 79.6915 265.759 79.4314V78.0642C265.452 78.2043 265.105 78.2843 264.725 78.2843C264.452 78.2843 264.232 78.211 264.085 78.0576C263.938 77.8975 263.878 77.6708 263.878 77.3907V73.4625H265.599L266.526 71.8019H263.871V68.8008C263.091 69.0742 262.438 69.5211 262.211 69.7878C261.964 70.0813 261.877 70.328 261.877 70.8082V77.524C261.877 78.4511 262.111 79.0246 262.498 79.3714M252.294 79.7249V71.5885C252.067 71.6418 251.127 71.9286 250.62 72.4622C250.4 72.6889 250.286 72.949 250.286 73.1624V79.7315H252.294V79.7249ZM247.265 79.7249L245.611 77.3173L243.937 79.7249H241.663L244.397 75.7834L241.576 71.8019H244.031L245.611 74.2628L245.638 74.2228C245.638 74.2228 246.305 73.1891 246.592 72.7689C247.139 71.9686 247.972 71.8019 248.532 71.8019H249.493L246.732 75.6567L249.466 79.7249H247.265Z" fill="white"/>
<path d="M223.736 68.3936V75.1961C222.963 74.7493 218.614 72.2417 217.841 71.7948C218.614 71.348 222.963 68.8404 223.736 68.3936Z" fill="white"/>
<path d="M223.736 76.3167V83.1192C222.963 82.6724 218.614 80.1648 217.841 79.7179C218.614 79.2711 222.963 76.7635 223.736 76.3167Z" fill="white"/>
<path d="M230.599 72.355V79.1575C229.825 78.7107 225.477 76.2031 224.703 75.7563C225.477 75.3094 229.825 72.8018 230.599 72.355Z" fill="white"/>
<path d="M224.383 68.3936C225.157 68.8404 229.505 71.348 230.279 71.7948C229.505 72.2417 225.157 74.7493 224.383 75.1961V68.3936Z" fill="white"/>
<path d="M224.383 76.3167C225.157 76.7635 229.505 79.2711 230.279 79.7179C229.505 80.1648 225.157 82.6724 224.383 83.1192V76.3167Z" fill="white"/>
<path d="M217.521 64.4324C218.294 64.8792 222.643 67.3868 223.416 67.8336C222.643 68.2805 218.294 70.7881 217.521 71.2349V64.4324Z" fill="white"/>
<path d="M288.314 79.991L286.56 77.8969C286.813 77.4767 287.013 77.0499 287.174 76.6164C287.334 76.1696 287.44 75.7761 287.5 75.4293H286.48C286.447 75.5427 286.407 75.6961 286.347 75.8828C286.286 76.0696 286.22 76.2696 286.133 76.4897C286.06 76.6831 285.966 76.8765 285.866 77.0633L283.479 74.2222C283.879 73.9888 284.226 73.762 284.512 73.5353C284.826 73.2885 285.066 73.0217 285.233 72.7283C285.4 72.4349 285.486 72.0947 285.486 71.7079C285.486 71.2811 285.379 70.8876 285.166 70.5408C284.953 70.1874 284.666 69.9139 284.312 69.7072C283.959 69.5004 283.552 69.4004 283.105 69.4004C282.658 69.4004 282.278 69.5071 281.918 69.7205C281.558 69.9339 281.271 70.2207 281.051 70.5742C280.838 70.9276 280.731 71.3278 280.731 71.7679C280.731 72.1348 280.844 72.5149 281.078 72.915C281.305 73.3152 281.538 73.6553 281.771 73.9354C281.258 74.2355 280.851 74.549 280.551 74.8891C280.211 75.2693 279.977 75.6494 279.844 76.0295C279.711 76.4097 279.644 76.7631 279.644 77.0966C279.644 77.39 279.704 77.7102 279.824 78.057C279.944 78.4038 280.131 78.7306 280.391 79.044C280.651 79.3575 280.985 79.6176 281.405 79.811C281.825 80.011 282.332 80.1111 282.932 80.1111C283.359 80.1111 283.772 80.0377 284.159 79.8977C284.546 79.7576 284.899 79.5775 285.226 79.3575C285.466 79.1907 285.68 79.0173 285.88 78.8306L286.847 79.9844H288.321L288.314 79.991ZM282.212 70.901C282.465 70.6542 282.772 70.5341 283.132 70.5341C283.492 70.5341 283.806 70.6475 284.059 70.8743C284.312 71.101 284.439 71.3878 284.439 71.7279C284.439 71.908 284.406 72.0947 284.339 72.2881C284.272 72.4815 284.119 72.6816 283.892 72.895C283.679 73.0884 283.345 73.3085 282.912 73.5553C282.772 73.3952 282.625 73.2152 282.472 73.0084C282.298 72.775 282.152 72.5549 282.025 72.3348C281.898 72.1147 281.838 71.9347 281.838 71.8013C281.838 71.4545 281.965 71.161 282.225 70.9143L282.212 70.901ZM284.339 78.6505C283.919 78.8973 283.465 79.0173 282.972 79.0173C282.518 79.0173 282.152 78.944 281.858 78.7972C281.565 78.6505 281.338 78.4705 281.185 78.2504C281.025 78.0303 280.918 77.8102 280.858 77.5968C280.798 77.3834 280.764 77.21 280.764 77.0699C280.764 76.8832 280.811 76.6564 280.898 76.3897C280.985 76.1229 281.171 75.8295 281.458 75.516C281.691 75.2559 282.025 75.0025 282.452 74.7491L285.193 78.0169C284.959 78.237 284.686 78.4504 284.352 78.6505H284.339Z" fill="white"/>
</g>
<defs>
<clipPath id="clip0_1313_44891">
<rect width="341.388" height="82.2508" fill="white" transform="translate(0.306076 0.874512)"/>
</clipPath>
</defs>
</svg>
