<svg width="103" height="30" viewBox="0 0 103 30" fill="none" xmlns="http://www.w3.org/2000/svg">
<path d="M39.175 26.3967C37.7032 26.3967 36.419 26.1395 35.3222 25.6252C34.2255 25.111 33.3724 24.3395 32.7631 23.311C32.1538 22.2721 31.8491 20.9864 31.8491 19.4538C31.8491 19.279 31.8491 19.1247 31.8491 18.991C31.8491 18.847 31.8491 18.6875 31.8491 18.5127H35.5472C35.5472 18.667 35.5472 18.811 35.5472 18.9447C35.5472 19.0681 35.5472 19.2121 35.5472 19.3767C35.5472 20.611 35.8519 21.5367 36.4612 22.1538C37.0799 22.7607 37.9892 23.0641 39.189 23.0641C40.3983 23.0641 41.3216 22.843 41.9591 22.4007C42.6059 21.9584 42.9293 21.2487 42.9293 20.2715C42.9293 19.5618 42.709 18.9601 42.2684 18.4664C41.8372 17.9624 41.242 17.5201 40.4827 17.1395C39.7234 16.759 38.8609 16.4041 37.8954 16.075C36.808 15.7047 35.8191 15.2264 34.9285 14.6401C34.038 14.0538 33.3255 13.3132 32.7912 12.4184C32.2569 11.5235 31.9897 10.423 31.9897 9.11667C31.9897 7.81038 32.2944 6.69953 32.9037 5.7841C33.5224 4.86867 34.3661 4.17438 35.4347 3.70124C36.5127 3.21781 37.7361 2.9761 39.1047 2.9761C40.5389 2.9761 41.7997 3.22295 42.8871 3.71667C43.9839 4.21038 44.8416 4.94581 45.4603 5.92295C46.079 6.9001 46.3883 8.11895 46.3883 9.57952C46.3883 9.77495 46.3883 9.94467 46.3883 10.0887C46.3883 10.2327 46.3883 10.3972 46.3883 10.5824H42.6762C42.6762 10.4487 42.6762 10.315 42.6762 10.1812C42.6762 10.0372 42.6762 9.89838 42.6762 9.76467C42.6762 8.5921 42.3856 7.7281 41.8044 7.17267C41.2232 6.60695 40.3421 6.3241 39.1609 6.3241C38.0079 6.3241 37.1221 6.54524 36.5034 6.98753C35.8847 7.42981 35.5753 8.13438 35.5753 9.10124C35.5753 9.82124 35.7862 10.423 36.2081 10.9064C36.6299 11.3898 37.2064 11.8115 37.9376 12.1715C38.6781 12.5212 39.5171 12.8761 40.4545 13.2361C41.7013 13.6887 42.7793 14.203 43.6886 14.779C44.5979 15.3447 45.3009 16.0544 45.7978 16.9081C46.2946 17.7515 46.543 18.8264 46.543 20.1327C46.543 21.4698 46.2337 22.6064 45.615 23.5424C45.0057 24.4681 44.1479 25.1778 43.0418 25.6715C41.945 26.155 40.6561 26.3967 39.175 26.3967Z" fill="black"/>
<path d="M49.8519 19.1761V16.291H60.2994L59.8775 17.0624C59.8775 17.0007 59.8775 16.9338 59.8775 16.8618C59.8775 16.7795 59.8775 16.7127 59.8775 16.6612C59.8775 15.9515 59.7322 15.2881 59.4416 14.671C59.151 14.0435 58.7104 13.5395 58.1199 13.159C57.5293 12.7681 56.7794 12.5727 55.8701 12.5727C54.9702 12.5727 54.1874 12.7835 53.5219 13.2052C52.8657 13.6167 52.3548 14.2132 51.9892 14.995C51.633 15.7767 51.4549 16.7127 51.4549 17.803C51.4549 18.9241 51.6283 19.891 51.9752 20.7035C52.322 21.5058 52.8282 22.123 53.4938 22.555C54.1687 22.9767 54.9889 23.1875 55.9545 23.1875C56.6106 23.1875 57.1778 23.1207 57.6559 22.987C58.1339 22.8532 58.523 22.6732 58.8229 22.447C59.1323 22.2104 59.3619 21.9584 59.5119 21.691C59.6713 21.4235 59.765 21.1561 59.7932 20.8887H63.4772C63.4209 21.5778 63.21 22.2515 62.8444 22.9098C62.4882 23.5578 61.9867 24.1492 61.3399 24.6841C60.6931 25.2087 59.9056 25.6304 58.9776 25.9492C58.0589 26.2578 57.009 26.4121 55.8279 26.4121C54.2249 26.4121 52.8235 26.0521 51.6236 25.3321C50.4237 24.6121 49.4863 23.6092 48.8114 22.3235C48.1458 21.0378 47.8131 19.567 47.8131 17.911C47.8131 16.2138 48.1505 14.7275 48.8255 13.4521C49.5098 12.1767 50.4566 11.1841 51.6658 10.4744C52.8751 9.75438 54.2624 9.39438 55.8279 9.39438C57.4403 9.39438 58.8323 9.75438 60.0041 10.4744C61.1852 11.1944 62.0945 12.1972 62.7319 13.483C63.3694 14.7584 63.6881 16.2447 63.6881 17.9418C63.6881 18.1578 63.6834 18.3892 63.674 18.6361C63.6647 18.883 63.6506 19.063 63.6318 19.1761H49.8519Z" fill="black"/>
<path d="M72.2348 26.3658C71.7004 26.3658 71.1568 26.3092 70.6037 26.1961C70.0506 26.083 69.5444 25.8721 69.0851 25.5635C68.6257 25.255 68.2555 24.8024 67.9742 24.2058C67.693 23.6092 67.5524 22.8224 67.5524 21.8452C67.5524 21.619 67.5524 21.3927 67.5524 21.1664C67.5524 20.9298 67.5524 20.6881 67.5524 20.4412V12.9121H64.0231V9.6721H65.4573C65.9448 9.6721 66.3291 9.65153 66.6103 9.61038C66.8915 9.55895 67.0978 9.44581 67.229 9.27095C67.3602 9.0961 67.4446 8.82353 67.4821 8.45324C67.529 8.07267 67.5524 7.5481 67.5524 6.87953V4.2721H71.2646V9.6721H75.7079V12.9121H71.2646V19.4847C71.2646 19.6801 71.2646 19.8755 71.2646 20.071C71.2646 20.2561 71.2646 20.4361 71.2646 20.611C71.2646 21.3721 71.3489 21.9841 71.5177 22.447C71.6864 22.9098 72.0848 23.1412 72.7129 23.1412C73.0128 23.1412 73.294 23.1104 73.5565 23.0487C73.8284 22.987 74.0299 22.9252 74.1611 22.8635V26.0418C73.983 26.1138 73.7253 26.1858 73.3878 26.2578C73.0503 26.3298 72.666 26.3658 72.2348 26.3658Z" fill="black"/>
<path d="M78.2946 19.1761V16.291H88.742L88.3202 17.0624C88.3202 17.0007 88.3202 16.9338 88.3202 16.8618C88.3202 16.7795 88.3202 16.7127 88.3202 16.6612C88.3202 15.9515 88.1749 15.2881 87.8843 14.671C87.5937 14.0435 87.1531 13.5395 86.5626 13.159C85.972 12.7681 85.2221 12.5727 84.3128 12.5727C83.4129 12.5727 82.6301 12.7835 81.9646 13.2052C81.3084 13.6167 80.7975 14.2132 80.4319 14.995C80.0757 15.7767 79.8976 16.7127 79.8976 17.803C79.8976 18.9241 80.071 19.891 80.4178 20.7035C80.7647 21.5058 81.2709 22.123 81.9365 22.555C82.6114 22.9767 83.4316 23.1875 84.3971 23.1875C85.0533 23.1875 85.6205 23.1207 86.0985 22.987C86.5766 22.8532 86.9656 22.6732 87.2656 22.447C87.575 22.2104 87.8046 21.9584 87.9546 21.691C88.114 21.4235 88.2077 21.1561 88.2358 20.8887H91.9199C91.8636 21.5778 91.6527 22.2515 91.2871 22.9098C90.9309 23.5578 90.4294 24.1492 89.7826 24.6841C89.1358 25.2087 88.3483 25.6304 87.4203 25.9492C86.5016 26.2578 85.4517 26.4121 84.2706 26.4121C82.6676 26.4121 81.2662 26.0521 80.0663 25.3321C78.8664 24.6121 77.929 23.6092 77.2541 22.3235C76.5885 21.0378 76.2557 19.567 76.2557 17.911C76.2557 16.2138 76.5932 14.7275 77.2682 13.4521C77.9525 12.1767 78.8992 11.1841 80.1085 10.4744C81.3178 9.75438 82.7051 9.39438 84.2706 9.39438C85.8829 9.39438 87.275 9.75438 88.4468 10.4744C89.6279 11.1944 90.5372 12.1972 91.1746 13.483C91.8121 14.7584 92.1308 16.2447 92.1308 17.9418C92.1308 18.1578 92.1261 18.3892 92.1167 18.6361C92.1073 18.883 92.0933 19.063 92.0745 19.1761H78.2946Z" fill="black"/>
<path d="M97.8606 1.94238V26.0572H94.2188V1.94238H97.8606Z" fill="black"/>
<path fill-rule="evenodd" clip-rule="evenodd" d="M19.3329 25.7206C19.7618 25.6305 20.1384 25.3643 20.3787 24.9813L25.7592 16.4047L17.1252 10.4788L6.70404 26.8807C6.30022 27.5163 6.83132 28.3462 7.54586 28.1961L19.3329 25.7206Z" fill="#00B0FF"/>
<path fill-rule="evenodd" clip-rule="evenodd" d="M9.2441 4.19825C8.81845 4.28764 8.44415 4.55059 8.2036 4.92921L3.7294 11.9717C3.22922 12.759 3.43209 13.8219 4.18277 14.3472L11.46 19.4389L21.8796 3.03688C22.2834 2.40129 21.7523 1.57149 21.0378 1.72154L9.2441 4.19825Z" fill="#00B0FF"/>
<path d="M25.7593 16.4046L25.7594 16.4048L11.4412 19.4252L17.1254 10.4788L25.7593 16.4046Z" fill="#2F48FA"/>
</svg>
